<svg aria-hidden="true" style="position: absolute; width: 0; height: 0; overflow: hidden;" version="1.1" xmlns="http://www.w3.org/2000/svg" xmlns:xlink="http://www.w3.org/1999/xlink">
<defs>
<symbol id="icon-arrow-bottom-right" viewBox="0 0 34 32">
<path d="M34.231 4.741l-4.741-4.741v23.704l-23.704-23.704-3.556 3.556 23.704 23.704h-23.704l4.741 4.741h27.259v-27.259z"></path>
</symbol>
<symbol id="icon-burger" viewBox="0 0 46 32">
<path d="M0 2.274c0-1.257 1.019-2.274 2.274-2.274h18.309c0.603 0 1.182 0.24 1.608 0.666s0.666 1.005 0.666 1.608c0 0.603-0.24 1.182-0.666 1.608s-1.005 0.666-1.608 0.666h-18.309c-0.603 0-1.182-0.24-1.608-0.666s-0.666-1.005-0.666-1.608zM0 16c0-1.257 1.019-2.274 2.274-2.274h41.166c0.603 0 1.182 0.24 1.608 0.666s0.666 1.005 0.666 1.608c0 0.603-0.24 1.182-0.666 1.608s-1.005 0.666-1.608 0.666h-41.166c-0.603 0-1.182-0.24-1.608-0.666s-0.666-1.005-0.666-1.608zM2.274 27.451c-0.603 0-1.182 0.24-1.608 0.666s-0.666 1.005-0.666 1.608c0 0.603 0.24 1.182 0.666 1.608s1.005 0.666 1.608 0.666h27.451c0.603 0 1.182-0.24 1.608-0.666s0.666-1.005 0.666-1.608c0-0.603-0.24-1.182-0.666-1.608s-1.005-0.666-1.608-0.666h-27.451z"></path>
</symbol>
<symbol id="icon-fruits-logo" viewBox="0 0 32 32">
<path d="M29.082 0.314h-4.009c-1.237 0-2.24 0.983-2.24 2.195v3.929c0 1.212 1.003 2.195 2.24 2.195h4.009c1.237 0 2.24-0.983 2.24-2.195v-3.929c0-1.212-1.003-2.195-2.24-2.195z"></path>
<path d="M6.73 23.040h-4.318c-1.332 0-2.412 0.983-2.412 2.195v3.929c0 1.213 1.080 2.195 2.412 2.195h4.318c1.332 0 2.412-0.983 2.412-2.195v-3.929c0-1.212-1.080-2.195-2.412-2.195z"></path>
<path d="M6.25 11.582h-4.009c-1.237 0-2.24 0.983-2.24 2.195v3.929c0 1.212 1.003 2.195 2.24 2.195h4.009c1.237 0 2.24-0.983 2.24-2.195v-3.929c0-1.212-1.003-2.195-2.24-2.195z"></path>
<path d="M17.766 22.978h-4.009c-1.237 0-2.24 0.983-2.24 2.195l-0 3.929c0 1.212 1.003 2.195 2.241 2.195h4.009c1.237 0 2.24-0.983 2.24-2.195v-3.929c0-1.213-1.003-2.195-2.24-2.195z"></path>
<path d="M6.25 0.086h-4.009c-1.237 0-2.24 0.983-2.24 2.195v3.929c0 1.212 1.003 2.195 2.24 2.195h4.009c1.237 0 2.24-0.983 2.24-2.195v-3.929c0-1.212-1.003-2.195-2.24-2.195z"></path>
<path d="M18.076 11.697h-4.009c-1.237 0-2.24 0.983-2.24 2.195v3.929c0 1.212 1.003 2.195 2.24 2.195h4.009c1.237 0 2.24-0.983 2.24-2.195v-3.929c0-1.212-1.003-2.195-2.24-2.195z"></path>
<path d="M29.333 22.978h-4.010c-1.237 0-2.24 0.983-2.24 2.195v3.929c0 1.212 1.003 2.195 2.24 2.195h4.009c1.237 0 2.24-0.983 2.24-2.195v-3.929c0-1.213-1.003-2.195-2.24-2.195z"></path>
<path d="M17.591 0.224h-4.009c-1.237 0-2.24 0.983-2.24 2.195v3.929c0 1.212 1.003 2.195 2.24 2.195h4.009c1.237 0 2.24-0.984 2.24-2.196v-3.929c0-1.212-1.003-2.195-2.24-2.195z"></path>
<path d="M29.044 11.926h-4.010c-1.237 0-2.24 0.983-2.24 2.195v3.929c0 1.212 1.003 2.195 2.24 2.195h4.009c1.237 0 2.24-0.983 2.24-2.195v-3.929c0-1.212-1.003-2.195-2.24-2.195z"></path>
</symbol>
<symbol id="icon-facebook" viewBox="0 0 31 32">
<path d="M18.847 4.905c0.232 0 0.463 0 0.927 0v3.476c-0.232 0-0.695 0-1.159 0s-0.927 0-1.159 0.232c-0.232 0.232-0.232 0.463-0.232 1.004 0 0.463 0 0.772 0 1.236h2.549v2.935h-2.549v12.745h-3.939v-12.822h-2.086v-2.935h2.086v-1.004c0-1.699 0.232-2.935 0.695-3.476 0.695-1.004 2.086-1.468 4.171-1.468 0.232 0.077 0.463 0.077 0.695 0.077z"></path>
</symbol>
<symbol id="icon-instagram" viewBox="0 0 31 32">
<path d="M27.727 10.809c-0.015-1.037-0.207-2.066-0.575-3.037-0.644-1.657-1.955-2.967-3.614-3.608-0.959-0.36-1.974-0.554-3-0.576-1.32-0.059-1.739-0.075-5.091-0.075s-3.781 0-5.092 0.075c-1.025 0.022-2.040 0.215-2.999 0.576-1.659 0.641-2.972 1.951-3.614 3.608-0.361 0.958-0.556 1.97-0.575 2.994-0.059 1.32-0.077 1.738-0.077 5.084s0 3.774 0.077 5.084c0.021 1.025 0.214 2.036 0.575 2.997 0.644 1.655 1.955 2.965 3.615 3.607 0.955 0.373 1.97 0.584 2.999 0.617 1.322 0.059 1.74 0.077 5.092 0.077s3.781 0 5.092-0.077c1.025-0.021 2.040-0.214 3-0.574 1.659-0.643 2.97-1.953 3.614-3.608 0.361-0.959 0.554-1.971 0.575-2.997 0.059-1.318 0.077-1.736 0.077-5.084-0.003-3.346-0.003-3.771-0.080-5.082zM15.439 22.179c-3.506 0-6.345-2.835-6.345-6.335s2.84-6.335 6.345-6.335c3.503 0 6.346 2.835 6.346 6.335s-2.843 6.335-6.346 6.335zM22.037 10.752c-0.819 0-1.48-0.66-1.48-1.477s0.66-1.477 1.48-1.477c0.817 0 1.478 0.66 1.478 1.477s-0.662 1.477-1.478 1.477z"></path>
<path d="M15.441 19.711c2.135 0 3.866-1.731 3.866-3.866s-1.731-3.866-3.866-3.866c-2.135 0-3.866 1.731-3.866 3.866s1.731 3.866 3.866 3.866z"></path>
</symbol>
<symbol id="icon-youtube" viewBox="0 0 31 32">
<path d="M23.404 6.217c-1.313-0.077-4.017-0.154-8.11-0.154h-0.541c-3.939 0-6.566 0.077-7.879 0.232-1.777 0.154-3.012 0.618-3.708 1.236-0.618 0.541-1.081 1.545-1.236 2.858-0.077 0.85-0.154 2.626-0.154 5.33v0.386c0 2.549 0.077 4.326 0.232 5.175 0.232 1.236 0.618 2.163 1.39 2.703 0.772 0.618 2.085 1.004 3.939 1.159 1.313 0.077 4.017 0.154 8.11 0.154h0.541c3.939 0 6.566-0.077 7.879-0.232 1.777-0.154 3.012-0.618 3.708-1.236 0.618-0.541 1.081-1.545 1.236-2.858 0.077-0.85 0.154-2.626 0.154-5.33v-0.386c0-2.549-0.077-4.326-0.232-5.175-0.232-1.236-0.618-2.163-1.39-2.703-0.772-0.618-2.086-1.004-3.939-1.159zM20.392 15.718l-8.497 5.098v-10.196l8.497 5.098z"></path>
</symbol>
<symbol id="icon-cart" viewBox="0 0 32 32">
<path fill="none" stroke="#ae1332" style="stroke: var(--color1, #ae1332)" stroke-linejoin="miter" stroke-linecap="butt" stroke-miterlimit="4" stroke-width="2" d="M5.939 30.81l-3.635-21.812h27.394l-3.635 21.812h-20.123z"></path>
<path fill="#ae1332" style="fill: var(--color1, #ae1332)" d="M7.251 9.059c0-4.832 3.917-8.749 8.749-8.749s8.749 3.917 8.749 8.749h-3.697c0-2.79-2.262-5.053-5.053-5.053s-5.053 2.262-5.053 5.053h-3.697zM22.901 13.989v0zM7.251 13.989v-4.929c0-4.832 3.917-8.749 8.749-8.749v3.697c-2.79 0-5.053 2.262-5.053 5.053v4.929h-3.697zM16 0.31c4.832 0 8.749 3.917 8.749 8.749v4.929h-3.697v-4.929c0-2.79-2.262-5.053-5.053-5.053v-3.697z"></path>
</symbol>
<symbol id="icon-close" viewBox="0 0 32 32">
<path stroke-linejoin="round" stroke-linecap="round" stroke-miterlimit="4" stroke-width="2.6667" d="M24 8l-16 16"></path>
<path stroke-linejoin="round" stroke-linecap="round" stroke-miterlimit="4" stroke-width="2.6667" d="M8 8l16 16"></path>
</symbol>
</defs>
</svg>
